<svg xmlns="http://www.w3.org/2000/svg" width="18" height="16"><defs><clipPath id="a"><path d="M0 0h18v16H0z"/></clipPath></defs><g data-name="Artboard – 1" clip-path="url(#a)"><path data-name="Path 201" d="M.4 0a.4.4 0 1 0 0 .8h2.075l2.106 9.95c.051.246.215.453.419.45h10a.4.4 0 1 0 0-.8H5.325l-.338-1.6H15.8a.413.413 0 0 0 .388-.312l1.4-6a.418.418 0 0 0-.388-.487H3.55L3.189.313a.413.413 0 0 0-.394-.312zm3.319 2.8h3.544L7.632 5H4.189zm4.35 0h4.262L11.962 5H8.437zm5.069 0h3.563L16.189 5h-3.421zm-8.781 3h3.406L8.132 8H4.818zm4.219 0h3.25L11.464 8H8.937zm4.063 0h3.363L15.483 8h-3.215zm-5.638 6.6a1.8 1.8 0 1 0 1.8 1.8A1.806 1.806 0 0 0 7 12.4zm6 0a1.8 1.8 0 1 0 1.8 1.8A1.806 1.806 0 0 0 13 12.4zm-6 .8a1 1 0 1 1-1 1 .994.994 0 0 1 .999-1zm6 0a1 1 0 1 1-1 1 .994.994 0 0 1 .999-1z" fill="#fff"/></g></svg>