<svg xmlns="http://www.w3.org/2000/svg" width="28" height="28"><defs><clipPath id="a"><path d="M0 0h28v28H0z"/></clipPath></defs><g data-name="Artboard – 1" clip-path="url(#a)"><path d="M14 2.489a42.927 42.927 0 0 1 5.6.156 7.215 7.215 0 0 1 2.644.467 5.463 5.463 0 0 1 2.644 2.644 7.215 7.215 0 0 1 .468 2.644c0 1.4.156 1.867.156 5.6a42.926 42.926 0 0 1-.156 5.6 7.215 7.215 0 0 1-.467 2.644 5.463 5.463 0 0 1-2.644 2.644 7.215 7.215 0 0 1-2.644.467c-1.4 0-1.867.156-5.6.156a42.926 42.926 0 0 1-5.6-.156 7.215 7.215 0 0 1-2.644-.467 5.463 5.463 0 0 1-2.644-2.644 7.215 7.215 0 0 1-.469-2.644c0-1.4-.156-1.867-.156-5.6a42.927 42.927 0 0 1 .156-5.6 7.215 7.215 0 0 1 .467-2.644A5.587 5.587 0 0 1 4.2 4.2a2.63 2.63 0 0 1 1.556-1.089A7.215 7.215 0 0 1 8.4 2.644a42.927 42.927 0 0 1 5.6-.155M14 0a45.962 45.962 0 0 0-5.756.156 9.6 9.6 0 0 0-3.422.622 6.09 6.09 0 0 0-2.489 1.555A6.09 6.09 0 0 0 .778 4.822a7.088 7.088 0 0 0-.622 3.422A45.962 45.962 0 0 0 0 14a45.962 45.962 0 0 0 .156 5.756 9.6 9.6 0 0 0 .622 3.422 6.09 6.09 0 0 0 1.556 2.489 6.09 6.09 0 0 0 2.489 1.556 9.6 9.6 0 0 0 3.422.622A45.962 45.962 0 0 0 14 28a45.962 45.962 0 0 0 5.756-.156 9.6 9.6 0 0 0 3.422-.622 6.526 6.526 0 0 0 4.044-4.044 9.6 9.6 0 0 0 .622-3.422c0-1.556.156-2.023.156-5.756a45.962 45.962 0 0 0-.156-5.756 9.6 9.6 0 0 0-.622-3.422 6.09 6.09 0 0 0-1.556-2.489A6.09 6.09 0 0 0 23.178.778a9.6 9.6 0 0 0-3.422-.622A45.962 45.962 0 0 0 14 0m0 6.844A7.04 7.04 0 0 0 6.844 14 7.156 7.156 0 1 0 14 6.844m0 11.822A4.583 4.583 0 0 1 9.333 14 4.583 4.583 0 0 1 14 9.333 4.583 4.583 0 0 1 18.667 14 4.583 4.583 0 0 1 14 18.667m7.467-13.845a1.711 1.711 0 1 0 1.711 1.711 1.726 1.726 0 0 0-1.711-1.711" fill="#fff" fill-rule="evenodd"/></g></svg>