<svg xmlns="http://www.w3.org/2000/svg" width="32" height="32"><defs><clipPath id="a"><path d="M0 0h32v32H0z"/></clipPath></defs><g data-name="Artboard – 1"><g data-name="Group 326" clip-path="url(#a)"><path data-name="Path 19" d="M11.8 17.8v12.8H0V20.4c0-5.4.6-9.4 2-12A16.55 16.55 0 0 1 10.2 1L13 5.4a10.505 10.505 0 0 0-5 4.2c-1.2 1.8-1.8 4.6-1.8 8.2zm19.2 0v12.8H19.2V20.4c0-5.6.6-9.4 2-12A16.55 16.55 0 0 1 29.4 1L32 5.4a10.505 10.505 0 0 0-5 4.2c-1 1.8-1.6 4.6-1.8 8.2z" fill="#2699fb"/></g></g></svg>