<svg xmlns="http://www.w3.org/2000/svg" width="28" height="28"><defs><clipPath id="a"><path d="M0 0h28v28H0z"/></clipPath></defs><g data-name="Artboard – 1" clip-path="url(#a)"><path data-name="Path 203" d="M8.867 25.711C19.444 25.711 25.2 17 25.2 9.378V8.6A12.644 12.644 0 0 0 28 5.644a12.913 12.913 0 0 1-3.267.933 6.052 6.052 0 0 0 2.489-3.111 14.268 14.268 0 0 1-3.578 1.4A5.555 5.555 0 0 0 19.444 3a5.844 5.844 0 0 0-5.756 5.756A3.033 3.033 0 0 0 13.844 10 16.083 16.083 0 0 1 2.022 3.933a5.957 5.957 0 0 0-.778 2.956 6.18 6.18 0 0 0 2.489 4.822 5.244 5.244 0 0 1-2.644-.778 5.685 5.685 0 0 0 4.667 5.6 4.8 4.8 0 0 1-1.556.156 2.647 2.647 0 0 1-1.089-.156 5.893 5.893 0 0 0 5.444 4.044 11.745 11.745 0 0 1-7.155 2.49 4.307 4.307 0 0 1-1.4-.156 14.683 14.683 0 0 0 8.867 2.8" fill="#fff" fill-rule="evenodd"/></g></svg>